<svg width="240" height="240" viewBox="0 0 240 240" fill="none" xmlns="http://www.w3.org/2000/svg">
<g clip-path="url(#clip0_1_2)">
<mask id="mask0_1_2" style="mask-type:luminance" maskUnits="userSpaceOnUse" x="0" y="0" width="240" height="240">
<path d="M240 0H0V240H240V0Z" fill="white"/>
</mask>
<g mask="url(#mask0_1_2)">
<path d="M152.363 53.9752H87.693C86.2193 53.9771 84.8065 54.5776 83.7644 55.6452C82.7224 56.7127 82.1362 58.1601 82.1344 59.6699V206.914L81.3932 207.146L65.5287 212.123C64.7769 212.358 63.9648 212.277 63.2707 211.899C62.5766 211.521 62.0573 210.877 61.8268 210.107L14.6372 52.1947C14.4075 51.4244 14.4858 50.5923 14.8548 49.8811C15.2238 49.1699 15.8533 48.638 16.605 48.4021L41.0521 40.7333L111.925 18.509L136.372 10.8402C136.744 10.7229 137.135 10.6819 137.523 10.7196C137.91 10.7573 138.287 10.8729 138.631 11.0598C138.974 11.2467 139.279 11.5012 139.527 11.8088C139.774 12.1164 139.961 12.471 140.074 12.8523L152.137 53.2159L152.363 53.9752Z" fill="#FEF9DE"/>
<path d="M166.473 53.2158L151.936 4.56839C151.694 3.75784 151.298 3.00405 150.772 2.35011C150.246 1.69616 149.599 1.15488 148.868 0.75719C148.137 0.359498 147.337 0.113188 146.514 0.0323437C145.69 -0.0485007 144.859 0.0377049 144.068 0.286026L109.697 11.0641L38.8277 33.2921L4.45654 44.074C2.85984 44.5763 1.5229 45.7071 0.739176 47.2181C-0.0445457 48.7292 -0.211019 50.4971 0.276303 52.1338L49.9635 218.391C50.3594 219.712 51.1582 220.868 52.2426 221.69C53.3271 222.512 54.6402 222.956 55.9892 222.958C56.6136 222.958 57.2344 222.862 57.8309 222.673L81.3923 215.285L82.1334 215.05V214.256L81.3923 214.488L57.6123 221.948C56.2029 222.388 54.6806 222.237 53.3794 221.529C52.0782 220.821 51.1043 219.613 50.6713 218.17L0.987966 51.9098C0.773434 51.1949 0.698665 50.4437 0.767935 49.6991C0.837206 48.9546 1.04915 48.2314 1.39165 47.5708C1.73414 46.9103 2.20046 46.3255 2.76389 45.8499C3.32731 45.3743 3.97678 45.0172 4.67511 44.7991L39.0463 34.0173L109.916 11.793L144.287 1.01115C144.817 0.845549 145.367 0.761113 145.921 0.760584C147.11 0.763318 148.266 1.15585 149.221 1.88069C150.176 2.60553 150.879 3.62458 151.228 4.78859L165.699 53.2158L165.929 53.9751H166.699L166.473 53.2158Z" fill="#38857B"/>
<path d="M45.4621 48.5259C44.7479 48.5254 44.0526 48.2904 43.4783 47.8554C42.9039 47.4204 42.4808 46.8083 42.2709 46.1089L37.4978 30.1366C37.3695 29.7076 37.325 29.2569 37.3668 28.8102C37.4086 28.3636 37.5358 27.9297 37.7413 27.5334C37.9468 27.1372 38.2265 26.7862 38.5644 26.5007C38.9023 26.2152 39.2917 26.0007 39.7106 25.8694L104.91 5.4204C105.756 5.15599 106.669 5.24617 107.45 5.67114C108.231 6.09611 108.816 6.82115 109.075 7.68713L113.849 23.6595C114.106 24.526 114.018 25.462 113.604 26.262C113.189 27.062 112.481 27.6608 111.636 27.927L46.4365 48.376C46.1208 48.4752 45.7924 48.5258 45.4621 48.5259Z" fill="#38857B"/>
<path d="M70.4663 17.0666C74.5596 17.0666 77.8778 13.6671 77.8778 9.47371C77.8778 5.28029 74.5596 1.88086 70.4663 1.88086C66.373 1.88086 63.0547 5.28029 63.0547 9.47371C63.0547 13.6671 66.373 17.0666 70.4663 17.0666Z" fill="#38857B"/>
<path d="M70.4667 14.2821C73.0587 14.2821 75.1599 12.1294 75.1599 9.47404C75.1599 6.81864 73.0587 4.66602 70.4667 4.66602C67.8747 4.66602 65.7734 6.81864 65.7734 9.47404C65.7734 12.1294 67.8747 14.2821 70.4667 14.2821Z" fill="white"/>
<path d="M223.323 221.018H98.0679C97.2328 221.017 96.4321 220.676 95.8416 220.071C95.2511 219.466 94.9189 218.646 94.918 217.791V64.0356C94.9189 63.18 95.2511 62.3598 95.8416 61.7548C96.4321 61.1498 97.2328 60.8095 98.0679 60.8086H223.323C224.158 60.8096 224.959 61.1499 225.55 61.7548C226.14 62.3598 226.472 63.18 226.473 64.0356V217.791C226.472 218.646 226.14 219.466 225.55 220.071C224.959 220.676 224.158 221.017 223.323 221.018Z" fill="#FEF9DE"/>
<path d="M165.699 53.2158H87.6924C86.0223 53.2182 84.4213 53.899 83.2404 55.1088C82.0594 56.3186 81.3949 57.9588 81.3926 59.6697V214.488L82.1337 214.256V59.6697C82.1355 58.16 82.7217 56.7126 83.7638 55.6451C84.8059 54.5775 86.2187 53.9769 87.6924 53.9751H165.929L165.699 53.2158ZM233.7 53.2158H87.6924C86.0223 53.2182 84.4213 53.899 83.2404 55.1088C82.0594 56.3186 81.3949 57.9588 81.3926 59.6697V233.546C81.3949 235.257 82.0594 236.897 83.2404 238.107C84.4213 239.317 86.0223 239.997 87.6924 240H233.7C235.37 239.997 236.971 239.317 238.152 238.107C239.333 236.897 239.998 235.257 240 233.546V59.6697C239.998 57.9588 239.333 56.3186 238.152 55.1088C236.971 53.899 235.37 53.2182 233.7 53.2158ZM239.259 233.546C239.257 235.056 238.671 236.503 237.629 237.571C236.587 238.638 235.174 239.239 233.7 239.241H87.6924C86.2187 239.239 84.8059 238.638 83.7638 237.571C82.7217 236.503 82.1355 235.056 82.1337 233.546V59.6697C82.1355 58.16 82.7217 56.7126 83.7638 55.6451C84.8059 54.5775 86.2187 53.9769 87.6924 53.9751H233.7C235.174 53.9769 236.587 54.5775 237.629 55.6451C238.671 56.7126 239.257 58.16 239.259 59.6697V233.546Z" fill="#38857B"/>
<path d="M194.789 69.9206H126.603C125.719 69.9196 124.871 69.5593 124.246 68.9188C123.62 68.2782 123.269 67.4097 123.268 66.5039V49.7996C123.269 48.8937 123.62 48.0252 124.246 47.3847C124.871 46.7441 125.719 46.3838 126.603 46.3828H194.789C195.673 46.3838 196.521 46.7441 197.146 47.3847C197.772 48.0252 198.123 48.8937 198.124 49.7996V66.5039C198.123 67.4097 197.772 68.2782 197.146 68.9188C196.521 69.5593 195.673 69.9196 194.789 69.9206Z" fill="#38857B"/>
<path d="M160.697 47.5216C164.79 47.5216 168.108 44.1222 168.108 39.9288C168.108 35.7354 164.79 32.3359 160.697 32.3359C156.603 32.3359 153.285 35.7354 153.285 39.9288C153.285 44.1222 156.603 47.5216 160.697 47.5216Z" fill="#38857B"/>
<path d="M160.696 44.5532C163.189 44.5532 165.21 42.4826 165.21 39.9285C165.21 37.3743 163.189 35.3037 160.696 35.3037C158.203 35.3037 156.182 37.3743 156.182 39.9285C156.182 42.4826 158.203 44.5532 160.696 44.5532Z" fill="white"/>
</g>
</g>
<defs>
<clipPath id="clip0_1_2">
<rect width="240" height="240" fill="white"/>
</clipPath>
</defs>
</svg>
