<svg width="241" height="248" viewBox="0 0 241 248" fill="none" xmlns="http://www.w3.org/2000/svg">
<mask id="mask0_1_17" style="mask-type:luminance" maskUnits="userSpaceOnUse" x="0" y="0" width="241" height="248">
<path d="M240.5 0H0.5V248H240.5V0Z" fill="white"/>
</mask>
<g mask="url(#mask0_1_17)">
<path d="M93.3401 248C144.614 248 186.18 240.749 186.18 231.804C186.18 222.859 144.614 215.607 93.3401 215.607C42.0659 215.607 0.5 222.859 0.5 231.804C0.5 240.749 42.0659 248 93.3401 248Z" fill="#38857B"/>
<path d="M149.765 179.202C199.876 179.202 240.498 139.086 240.498 89.601C240.498 40.1157 199.876 0 149.765 0C99.654 0 59.0312 40.1157 59.0312 89.601C59.0312 139.086 99.654 179.202 149.765 179.202Z" fill="#38857B"/>
<path opacity="0.05" d="M149.767 163.57C191.135 163.57 224.67 130.453 224.67 89.6012C224.67 48.7496 191.135 15.6328 149.767 15.6328C108.399 15.6328 74.8633 48.7496 74.8633 89.6012C74.8633 130.453 108.399 163.57 149.767 163.57Z" fill="#25384D"/>
<path opacity="0.05" d="M149.765 150.225C183.67 150.225 211.155 123.083 211.155 89.6012C211.155 56.1197 183.67 28.9775 149.765 28.9775C115.86 28.9775 88.375 56.1197 88.375 89.6012C88.375 123.083 115.86 150.225 149.765 150.225Z" fill="#25384D"/>
<path opacity="0.05" d="M149.765 133.067C174.074 133.067 193.781 113.606 193.781 89.6008C193.781 65.5952 174.074 46.1348 149.765 46.1348C125.456 46.1348 105.75 65.5952 105.75 89.6008C105.75 113.606 125.456 133.067 149.765 133.067Z" fill="#25384D"/>
<path d="M59.8378 97.6201C59.8378 97.6201 52.7043 117.449 55.8748 124.493C59.0452 131.538 64.065 138.321 64.065 138.321C64.065 138.321 62.2156 98.9246 59.8378 97.6201Z" fill="#EBC55B"/>
<path opacity="0.1" d="M59.8378 97.6201C59.8378 97.6201 52.7043 117.449 55.8748 124.493C59.0452 131.538 64.065 138.321 64.065 138.321C64.065 138.321 62.2156 98.9246 59.8378 97.6201Z" fill="#25384D"/>
<path d="M64.856 143.539C64.856 143.539 64.3275 148.497 64.0633 148.757C63.7991 149.018 64.3275 149.54 64.0633 150.323C63.7991 151.106 63.5349 152.149 64.0633 152.41C64.5918 152.671 61.1571 175.631 61.1571 175.631C61.1571 175.631 52.7026 186.589 56.1373 203.808L57.1941 221.289C57.1941 221.289 65.3844 221.811 65.3844 218.941C65.3844 218.941 64.856 215.549 64.856 213.984C64.856 212.418 66.177 212.418 65.3844 211.636C64.5918 210.853 64.5918 210.331 64.5918 210.331C64.5918 210.331 65.9128 209.287 65.6486 209.026C65.3844 208.766 68.0264 190.241 68.0264 190.241C68.0264 190.241 70.9326 187.371 70.9326 185.806V184.241C70.9326 184.241 72.2536 180.849 72.2536 180.588C72.2536 180.327 79.3871 164.412 79.3871 164.412L82.2933 175.892L85.4638 192.329C85.4638 192.329 87.049 207.2 90.2194 212.94C90.2194 212.94 95.7677 231.725 95.7677 231.203C95.7677 230.682 105.015 229.377 104.751 227.029C104.486 224.681 99.2023 191.807 99.2023 191.807L100.523 143.018L64.856 143.539Z" fill="#25384D"/>
<path d="M57.7235 219.984C57.7235 219.984 50.59 233.812 55.3457 234.334C60.1013 234.856 61.9508 234.856 64.0644 232.769C65.2199 231.628 67.5599 230.097 69.4439 228.943C70.5602 228.271 71.462 227.301 72.0459 226.146C72.6297 224.99 72.872 223.696 72.7449 222.41C72.6056 221.134 72.1226 220.082 70.9337 219.984C67.7632 219.723 64.0644 216.854 64.0644 216.854L57.7235 219.984Z" fill="#25384D"/>
<path d="M97.0907 230.159C97.0907 230.159 89.9572 243.987 94.7129 244.509C99.4685 245.031 101.318 245.031 103.432 242.944C104.587 241.802 106.927 240.271 108.811 239.118C109.927 238.445 110.829 237.476 111.413 236.32C111.997 235.165 112.239 233.87 112.112 232.585C111.973 231.309 111.49 230.257 110.301 230.159C107.13 229.898 103.432 227.028 103.432 227.028L97.0907 230.159Z" fill="#25384D"/>
<path d="M89.5514 74.9906C95.6851 74.9906 100.657 70.0803 100.657 64.0231C100.657 57.966 95.6851 53.0557 89.5514 53.0557C83.4177 53.0557 78.4453 57.966 78.4453 64.0231C78.4453 70.0803 83.4177 74.9906 89.5514 74.9906Z" fill="#FEB094"/>
<path d="M82.4115 67.627C82.4115 67.627 74.4785 82.0413 73.8439 82.0413C73.2093 82.0413 88.1232 86.7417 88.1232 86.7417C88.1232 86.7417 92.2483 72.954 92.8829 71.7006L82.4115 67.627Z" fill="#FEB094"/>
<path d="M94.5806 83.4007C94.5806 83.4007 78.7284 74.7908 77.1432 75.0517C75.558 75.3126 58.649 89.9233 58.9132 95.9241C59.1774 101.925 61.291 111.839 61.291 111.839C61.291 111.839 62.0836 139.495 63.6689 139.756C65.2541 140.017 63.4047 144.713 63.9331 144.713C64.4615 144.713 100.921 144.713 101.186 143.931C101.45 143.148 94.5806 83.4007 94.5806 83.4007Z" fill="#EBC55B"/>
<path d="M103.429 145.365C103.429 145.365 108.448 160.498 104.221 159.976C99.994 159.454 98.1445 146.931 98.1445 146.931L103.429 145.365Z" fill="#FEB094"/>
<path d="M89.954 82.4876C89.954 82.4876 80.1785 84.5749 81.7637 97.6201C83.3489 110.665 86.2552 123.711 86.2552 123.711L96.0307 144.844L97.0875 148.757L104.221 146.931L98.9369 116.666C98.9369 116.666 97.0875 84.314 94.7097 83.2703C93.2102 82.6391 91.5797 82.3707 89.954 82.4876Z" fill="#EBC55B"/>
<path opacity="0.1" d="M84.0117 123.318L96.1652 144.712L85.9257 122.169L84.0117 123.318Z" fill="#25384D"/>
<path d="M100.606 60.794L100.642 59.9559L102.331 60.3709C102.313 60.1018 102.236 59.8399 102.105 59.6031C101.974 59.3663 101.793 59.1603 101.574 58.9993L103.373 58.9C101.864 56.7824 99.9355 54.9887 97.705 53.6274C95.4744 52.2661 92.9876 51.3654 90.3947 50.9797C86.5048 50.4229 82.1735 51.2286 79.506 54.0794C78.2122 55.4622 77.3993 57.2207 76.821 59.0147C75.7559 62.3189 75.5388 66.2577 77.7598 68.9435C80.017 71.6731 83.9598 72.2078 87.512 72.5457C88.7619 72.6645 90.0718 72.7751 91.23 72.2962C91.3589 70.9843 91.1889 69.6605 90.7323 68.4219C90.5422 68.0385 90.4513 67.6145 90.4678 67.1879C90.6257 66.1442 92.0354 65.8813 93.0943 66.0223C94.1533 66.1633 95.4266 66.379 96.1224 65.5782C96.6017 65.0266 96.5734 64.2234 96.6369 63.4992C96.8098 61.5278 100.588 61.2073 100.606 60.794Z" fill="#25384D"/>
<path d="M168.726 234.032C175.872 234.032 181.666 228.311 181.666 221.254C181.666 214.196 175.872 208.475 168.726 208.475C161.579 208.475 155.785 214.196 155.785 221.254C155.785 228.311 161.579 234.032 168.726 234.032Z" fill="#FE8C71"/>
<path d="M16.749 229.574C23.8958 229.574 29.6895 223.853 29.6895 216.796C29.6895 209.738 23.8958 204.017 16.749 204.017C9.60223 204.017 3.80859 209.738 3.80859 216.796C3.80859 223.853 9.60223 229.574 16.749 229.574Z" fill="#FE8C71"/>
<path d="M16.751 209.069C21.9034 209.069 26.0802 204.944 26.0802 199.856C26.0802 194.768 21.9034 190.644 16.751 190.644C11.5987 190.644 7.42188 194.768 7.42188 199.856C7.42188 204.944 11.5987 209.069 16.751 209.069Z" fill="#FE8C71"/>
<path d="M16.7496 192.13C20.4061 192.13 23.3703 189.203 23.3703 185.592C23.3703 181.981 20.4061 179.054 16.7496 179.054C13.0931 179.054 10.1289 181.981 10.1289 185.592C10.1289 189.203 13.0931 192.13 16.7496 192.13Z" fill="#FE8C71"/>
</g>
</svg>
